<svg width="50" height="50" viewBox="0 0 50 50" fill="none" xmlns="http://www.w3.org/2000/svg">
<g clip-path="url(#clip0_1_224)">
<path fill-rule="evenodd" clip-rule="evenodd" d="M43.6449 16.149L42.0737 17.7202C38.6694 14.7529 34.3044 13.0933 29.766 13.0933C26.7103 13.0933 23.6563 13.8789 21.0377 15.275L27.6711 8.64162C28.1948 8.99022 28.8053 9.16535 29.4174 9.16535C30.2897 9.16535 31.1637 8.81674 31.8609 8.11788C33.257 6.72181 33.257 4.53851 31.8609 3.14243C31.1621 2.44358 30.2897 2.09497 29.4174 2.09497C28.545 2.09497 27.6711 2.44358 26.9738 3.14243C25.8396 4.36502 25.6645 6.1097 26.4501 7.41903L18.0704 15.7987L16.4992 14.2275L12.2226 18.5041L13.7938 20.0753L5.23898 28.6302C4.71525 28.2816 4.10478 28.1064 3.49266 28.1064C2.62032 28.1064 1.74635 28.455 1.04913 29.1539C-0.346943 30.55 -0.346943 32.7333 1.04913 34.1293C1.74798 34.7398 2.62032 35.0901 3.49266 35.0901C4.365 35.0901 5.23898 34.7415 5.9362 34.0426C7.07041 32.9084 7.24553 31.1621 6.45993 29.766L13.0933 23.1326C9.60232 29.8544 10.3879 38.2341 15.5369 44.1686L13.9657 45.8266L18.3306 50.1032L22.6072 45.8266L18.3306 41.55L16.8462 43.0344C11.784 37.0982 11.5221 28.5451 15.7987 22.2603L16.4976 22.9591L20.8625 18.6825L20.077 17.9837C22.8707 15.9755 26.275 14.928 29.766 14.928C33.8691 14.928 37.7087 16.4125 40.8511 19.0311L39.2799 20.5156L43.6449 24.7922L47.9215 20.5156L43.6449 16.1506V16.149ZM20.1637 45.8265L18.3306 47.6596L16.4976 45.8265L18.3306 43.9934L20.1637 45.8265V45.8265ZM28.1948 4.45181C28.5434 4.1032 28.9804 3.92808 29.4174 3.92808C29.8543 3.92808 30.2897 4.1032 30.6399 4.45181C31.3388 5.15067 31.3388 6.19813 30.6399 6.89535C30.2913 7.24396 29.8543 7.41908 29.4174 7.41908C28.9804 7.41908 28.545 7.24396 28.1948 6.89535C27.4959 6.28487 27.4959 5.14903 28.1948 4.45181V4.45181ZM4.71356 32.82C4.36495 33.1686 3.92796 33.3438 3.49097 33.3438C3.05399 33.3438 2.61863 33.1686 2.26839 32.82C1.91978 32.5582 1.74466 32.1212 1.74466 31.5974C1.74466 31.1605 1.91978 30.7251 2.26839 30.3749C2.617 30.0246 3.05399 29.8511 3.49097 29.8511C3.92796 29.8511 4.36331 30.0262 4.71356 30.3749C5.41241 31.0737 5.41241 32.2079 4.71356 32.8184V32.82ZM16.4108 20.5123L14.5778 18.6792L16.4108 16.8462L18.2439 18.6792L16.4108 20.5123V20.5123ZM43.6448 22.3452L41.8118 20.5122L43.6448 18.6791L45.4779 20.5122L43.6448 22.3452V22.3452Z" fill="#333333"/>
</g>
<defs>
<clipPath id="clip0_1_224">
<rect width="50" height="50" fill="white"/>
</clipPath>
</defs>
</svg>
